Normalized EMG Linear Envelopes
nRows=32
nColumns=17

endheader
time	        VM	        VL	        RF	       GRA	        TA	   ADDLONG	   SEMIMEM	      BFLH	        GM	        GL	       TFL	   GLUTMAX	   GLUTMED	      PIRI	    OBTINT	        QF	
2.415	  0.018282	  0.016511	  0.070548	  0.092689	  0.132201	  0.074748	  0.011657	  0.013256	  0.006272	  0.011501	  0.021333	  0.014891	  0.159414	  0.328537	  0.770765	  0.271112	
2.4155	  0.018038	  0.016470	  0.070316	  0.091005	  0.131224	  0.073865	  0.011472	  0.012842	  0.006134	  0.011412	  0.020779	  0.015703	  0.159019	  0.327039	  0.767495	  0.271909	
2.416	  0.017799	  0.016427	  0.070080	  0.089360	  0.130240	  0.072982	  0.011308	  0.012447	  0.005997	  0.011322	  0.020241	  0.016541	  0.158606	  0.325515	  0.764248	  0.272693	
2.4165	  0.017565	  0.016381	  0.069840	  0.087752	  0.129248	  0.072099	  0.011163	  0.012072	  0.005862	  0.011231	  0.019719	  0.017406	  0.158176	  0.323965	  0.761026	  0.273462	
2.417	  0.017336	  0.016332	  0.069594	  0.086182	  0.128248	  0.071218	  0.011039	  0.011715	  0.005728	  0.011139	  0.019212	  0.018297	  0.157727	  0.322391	  0.757832	  0.274218	
2.4175	  0.017112	  0.016280	  0.069344	  0.084650	  0.127240	  0.070338	  0.010936	  0.011377	  0.005595	  0.011046	  0.018721	  0.019216	  0.157259	  0.320794	  0.754669	  0.274961	
2.418	  0.016892	  0.016226	  0.069088	  0.083156	  0.126223	  0.069461	  0.010853	  0.011059	  0.005464	  0.010953	  0.018245	  0.020163	  0.156774	  0.319176	  0.751538	  0.275691	
2.4185	  0.016677	  0.016169	  0.068828	  0.081699	  0.125197	  0.068586	  0.010792	  0.010760	  0.005334	  0.010858	  0.017784	  0.021138	  0.156271	  0.317538	  0.748441	  0.276408	
2.419	  0.016467	  0.016109	  0.068562	  0.080281	  0.124162	  0.067715	  0.010751	  0.010480	  0.005207	  0.010763	  0.017338	  0.022141	  0.155751	  0.315879	  0.745380	  0.277112	
2.4195	  0.016261	  0.016047	  0.068290	  0.078901	  0.123118	  0.066847	  0.010732	  0.010220	  0.005080	  0.010667	  0.016907	  0.023173	  0.155215	  0.314203	  0.742357	  0.277803	
2.42	  0.016060	  0.015982	  0.068013	  0.077558	  0.122065	  0.065982	  0.010735	  0.009979	  0.004956	  0.010571	  0.016490	  0.024234	  0.154662	  0.312510	  0.739373	  0.278483	
2.4205	  0.015864	  0.015914	  0.067730	  0.076253	  0.121002	  0.065123	  0.010760	  0.009757	  0.004834	  0.010474	  0.016087	  0.025324	  0.154095	  0.310801	  0.736430	  0.279150	
2.421	  0.015672	  0.015844	  0.067441	  0.074985	  0.119929	  0.064268	  0.010808	  0.009556	  0.004714	  0.010376	  0.015697	  0.026445	  0.153513	  0.309078	  0.733528	  0.279805	
2.4215	  0.015485	  0.015772	  0.067145	  0.073755	  0.118846	  0.063418	  0.010877	  0.009374	  0.004596	  0.010277	  0.015322	  0.027595	  0.152918	  0.307342	  0.730667	  0.280449	
2.422	  0.015302	  0.015697	  0.066842	  0.072563	  0.117752	  0.062573	  0.010970	  0.009211	  0.004480	  0.010178	  0.014960	  0.028776	  0.152311	  0.305595	  0.727850	  0.281081	
2.4225	  0.015124	  0.015620	  0.066533	  0.071408	  0.116647	  0.061735	  0.011085	  0.009069	  0.004367	  0.010078	  0.014611	  0.029988	  0.151692	  0.303839	  0.725076	  0.281703	
2.423	  0.014950	  0.015541	  0.066216	  0.070289	  0.115531	  0.060902	  0.011223	  0.008946	  0.004256	  0.009977	  0.014276	  0.031231	  0.151062	  0.302075	  0.722346	  0.282314	
2.4235	  0.014780	  0.015459	  0.065892	  0.069208	  0.114403	  0.060076	  0.011385	  0.008844	  0.004148	  0.009876	  0.013953	  0.032506	  0.150423	  0.300305	  0.719660	  0.282915	
2.424	  0.014614	  0.015375	  0.065560	  0.068164	  0.113265	  0.059257	  0.011570	  0.008761	  0.004043	  0.009775	  0.013642	  0.033812	  0.149776	  0.298530	  0.717019	  0.283506	
2.4245	  0.014453	  0.015289	  0.065219	  0.067156	  0.112115	  0.058445	  0.011779	  0.008699	  0.003940	  0.009673	  0.013344	  0.035150	  0.149120	  0.296754	  0.714421	  0.284088	
2.425	  0.014295	  0.015201	  0.064870	  0.066184	  0.110954	  0.057640	  0.012013	  0.008657	  0.003840	  0.009570	  0.013058	  0.036522	  0.148459	  0.294979	  0.711868	  0.284661	
2.4255	  0.014142	  0.015111	  0.064512	  0.065249	  0.109782	  0.056843	  0.012270	  0.008635	  0.003744	  0.009468	  0.012784	  0.037926	  0.147791	  0.293205	  0.709359	  0.285226	
2.426	  0.013993	  0.015018	  0.064144	  0.064349	  0.108600	  0.056053	  0.012552	  0.008633	  0.003651	  0.009365	  0.012522	  0.039363	  0.147119	  0.291435	  0.706892	  0.285784	
2.4265	  0.013847	  0.014924	  0.063767	  0.063485	  0.107407	  0.055272	  0.012858	  0.008652	  0.003561	  0.009262	  0.012271	  0.040833	  0.146444	  0.289671	  0.704468	  0.286335	
2.427	  0.013705	  0.014828	  0.063380	  0.062656	  0.106205	  0.054499	  0.013190	  0.008691	  0.003475	  0.009159	  0.012031	  0.042337	  0.145767	  0.287916	  0.702085	  0.286881	
2.4275	  0.013567	  0.014730	  0.062983	  0.061862	  0.104993	  0.053734	  0.013546	  0.008751	  0.003393	  0.009056	  0.011802	  0.043876	  0.145089	  0.286171	  0.699742	  0.287422	
2.428	  0.013432	  0.014630	  0.062576	  0.061103	  0.103771	  0.052977	  0.013928	  0.008831	  0.003315	  0.008952	  0.011584	  0.045448	  0.144411	  0.284437	  0.697439	  0.287958	
2.4285	  0.013301	  0.014528	  0.062159	  0.060378	  0.102541	  0.052230	  0.014336	  0.008932	  0.003240	  0.008849	  0.011376	  0.047055	  0.143734	  0.282717	  0.695173	  0.288491	
2.429	  0.013174	  0.014424	  0.061732	  0.059687	  0.101303	  0.051491	  0.014769	  0.009054	  0.003171	  0.008747	  0.011179	  0.048697	  0.143060	  0.281013	  0.692944	  0.289021	
2.4295	  0.013050	  0.014318	  0.061295	  0.059030	  0.100057	  0.050762	  0.015228	  0.009196	  0.003106	  0.008644	  0.010992	  0.050374	  0.142390	  0.279326	  0.690750	  0.289549	
2.43	  0.012929	  0.014210	  0.060848	  0.058405	  0.098803	  0.050041	  0.015713	  0.009359	  0.003045	  0.008542	  0.010814	  0.052087	  0.141725	  0.277658	  0.688590	  0.290074	
2.4305	  0.012811	  0.014101	  0.060391	  0.057814	  0.097544	  0.049330	  0.016225	  0.009543	  0.002990	  0.008440	  0.010647	  0.053834	  0.141066	  0.276011	  0.686462	  0.290599	
